<?xml version="1.0" encoding="utf-8"?>
<!-- Generator: Adobe Illustrator 16.0.0, SVG Export Plug-In . SVG Version: 6.00 Build 0)  -->
<!DOCTYPE svg PUBLIC "-//W3C//DTD SVG 1.1//EN" "http://www.w3.org/Graphics/SVG/1.1/DTD/svg11.dtd">
<svg version="1.1" xmlns="http://www.w3.org/2000/svg" xmlns:xlink="http://www.w3.org/1999/xlink" x="0px" y="0px" width="600px"
	 height="600px" viewBox="0 0 600 600" enable-background="new 0 0 600 600" xml:space="preserve">
<g id="Layer_1">
	<title>logo</title>
	<desc>Created with Sketch.</desc>
	<g id="Page-1">
		<defs>
			<filter id="Adobe_OpacityMaskFilter" filterUnits="userSpaceOnUse" x="-2" y="-2" width="604" height="604">
				<feColorMatrix  type="matrix" values="1 0 0 0 0  0 1 0 0 0  0 0 1 0 0  0 0 0 1 0"/>
			</filter>
		</defs>
		<mask maskUnits="userSpaceOnUse" x="-2" y="-2" width="604" height="604" id="mask-2">
			<g filter="url(#Adobe_OpacityMaskFilter)">
				<circle id="path-1" fill="#FFFFFF" cx="300" cy="300" r="290"/>
			</g>
		</mask>
		<g id="logo" mask="url(#mask-2)">
			<path id="Timber" fill="#2D2D2D" d="M213.39,313.46V391h-11.578v-77.54h-20.763v-11.522h53.104v11.522H213.39z M257.754,333.722
				V391h-11.522v-57.278H257.754z M257.698,312.514c1.596,1.559,2.394,3.47,2.394,5.733s-0.798,4.175-2.394,5.733
				s-3.507,2.338-5.733,2.338c-2.189,0-4.082-0.779-5.678-2.338s-2.394-3.47-2.394-5.733s0.798-4.175,2.394-5.733
				s3.488-2.338,5.678-2.338C254.191,310.176,256.103,310.955,257.698,312.514L257.698,312.514z M275.399,333.722h11.522v5.344
				c2.227-5.604,6.513-8.405,12.858-8.405c6.309,0,9.853,3.191,10.632,9.574c1.818-6.383,6.828-9.574,15.029-9.574
				c8.09,0,12.135,4.917,12.135,14.751V391h-11.578v-40.301c0-5.641-2.282-8.461-6.847-8.461c-1.893,0-3.525,0.668-4.898,2.004
				s-2.06,5.826-2.06,13.471V391h-11.522l0.056-40.301c0-5.641-2.301-8.461-6.902-8.461c-1.893,0-3.525,0.668-4.898,2.004
				c-1.188,1.15-1.855,4.193-2.004,9.129V391h-11.522V333.722z M365.854,356.321v8.962c0.705,3.488,2.486,6.661,5.344,9.519
				c3.896,3.859,8.591,5.789,14.083,5.789s10.177-1.93,14.055-5.789c3.879-3.859,5.817-8.535,5.817-14.027
				c0-5.455-1.938-10.131-5.817-14.027c-3.878-3.896-8.562-5.845-14.055-5.845s-10.187,1.948-14.083,5.845
				C368.34,349.604,366.559,352.796,365.854,356.321L365.854,356.321z M365.854,383.875V391h-11.522v-89.062h11.522v35.736
				c5.566-5.752,12.042-8.628,19.427-8.628c8.758,0,16.226,3.099,22.404,9.296c6.18,6.197,9.269,13.675,9.269,22.433
				s-3.089,16.235-9.269,22.433c-6.179,6.197-13.646,9.296-22.404,9.296C377.896,392.503,371.42,389.627,365.854,383.875
				L365.854,383.875z M450.073,378.03c1.93,1.707,5.437,2.561,10.521,2.561c5.492,0,10.187-1.93,14.083-5.789
				c0.482-0.52,1.466-1.67,2.95-3.451l11.522,4.119c-2.82,3.896-4.861,6.476-6.123,7.737c-6.197,6.197-13.675,9.296-22.433,9.296
				c-8.721,0-16.18-3.099-22.377-9.296s-9.296-13.675-9.296-22.433s3.099-16.235,9.296-22.433s13.656-9.296,22.377-9.296
				c7.496,0,14.064,2.264,19.705,6.791c0.928,0.779,1.837,1.614,2.728,2.505c0.371,0.371,1.429,1.54,3.173,3.507l-5.789,5.845
				L450.073,378.03z M469.333,342.405c-1.299-1.002-4.212-1.503-8.739-1.503c-5.455,0-10.121,1.938-13.999,5.816
				c-3.879,3.879-5.817,8.563-5.817,14.056c0,4.49,0.501,7.403,1.503,8.739L469.333,342.405z M514.031,341.459
				c4.305-5.826,9.593-8.888,15.864-9.185v11.968c-4.193,0.223-7.533,1.577-10.02,4.063c-3.748,3.711-5.696,8.127-5.845,13.248V391
				h-11.522v-57.278h11.522V341.459z"/>
			<path id="_x26_" fill="#2D2D2D" d="M146.729,356.433c0.371,1.336,0.557,2.635,0.557,3.896c0,2.486-0.649,4.843-1.948,7.069
				c-2.004,3.525-5.27,5.956-9.797,7.292c-0.816,2.709-2.895,5.733-6.234,9.073c-5.418,5.455-11.968,8.183-19.649,8.183
				c-7.645,0-14.185-2.718-19.622-8.155c-5.437-5.437-8.155-11.995-8.155-19.677c0-7.607,2.653-14.25,7.96-19.928
				c3.191-3.117,6.123-4.843,8.795-5.177c-5.752-5.789-8.628-11.56-8.628-17.312c0-5.678,2.032-10.558,6.095-14.64
				s8.971-6.123,14.723-6.123s10.669,2.022,14.751,6.067c2.301,2.227,4.23,5.771,5.789,10.632l-10.465,4.119
				c-1.262-3.414-2.412-5.641-3.451-6.68c-1.818-1.781-4.026-2.672-6.624-2.672c-2.561,0-4.75,0.9-6.568,2.699
				c-1.818,1.801-2.728,3.999-2.728,6.597c0,2.635,0.956,4.973,2.867,7.014s3.674,3.377,5.288,4.008s4.908,0.965,9.88,1.002v11.077
				l-6.791,0.056c-6.568,1.299-11.458,3.701-14.667,7.208c-3.21,3.508-4.815,7.524-4.815,12.052s1.596,8.387,4.787,11.578
				s7.051,4.787,11.578,4.787c4.49,0,9.314-2.635,14.473-7.904c-1.039-0.854-2.876-2.653-5.511-5.399
				c-0.965-0.891-1.726-1.521-2.282-1.893c-0.52-0.334-0.946-0.501-1.28-0.501H115c-0.371,0.037-0.631,0.241-0.779,0.612
				c-0.074,0.148-0.111,0.297-0.111,0.445c0,0.26,0.074,0.538,0.223,0.835l-9.463,6.401c-0.779-1.15-1.373-2.449-1.781-3.896
				c-0.297-1.15-0.445-2.282-0.445-3.396c0-2.115,0.557-4.156,1.67-6.123c1.744-3.006,4.268-4.954,7.57-5.845
				c1.15-0.334,2.301-0.501,3.451-0.501c2.115,0,4.138,0.557,6.067,1.67c1.633,0.928,3.498,2.663,5.594,5.204
				c2.097,2.543,4.054,3.925,5.873,4.147c0.26,0.037,0.501,0.056,0.724,0.056c1.41,0,2.412-0.649,3.006-1.948
				c0.148-0.334,0.223-0.687,0.223-1.058c0-1.188-0.854-2.486-2.561-3.896l5.678-9.853
				C143.389,349.642,145.652,352.573,146.729,356.433L146.729,356.433z"/>
			<path id="Hearth" fill="#2D2D2D" d="M149.826,237.15V274h-11.522v-89.062h11.522v40.69h27.498v-40.69h11.522V274h-11.522v-36.85
				H149.826z M223.358,261.03c1.93,1.707,5.437,2.561,10.521,2.561c5.492,0,10.187-1.93,14.083-5.789
				c0.482-0.52,1.466-1.67,2.95-3.451l11.522,4.119c-2.82,3.896-4.861,6.476-6.123,7.737c-6.197,6.197-13.675,9.296-22.433,9.296
				c-8.721,0-16.18-3.099-22.377-9.296s-9.296-13.675-9.296-22.433s3.099-16.235,9.296-22.433s13.656-9.296,22.377-9.296
				c7.496,0,14.064,2.264,19.705,6.791c0.928,0.779,1.837,1.614,2.728,2.505c0.371,0.371,1.429,1.54,3.173,3.507l-5.789,5.845
				L223.358,261.03z M242.618,225.405c-1.299-1.002-4.212-1.503-8.739-1.503c-5.455,0-10.122,1.939-14,5.817
				s-5.817,8.563-5.817,14.055c0,4.49,0.501,7.403,1.503,8.739L242.618,225.405z M325.445,248.061V239.6
				c-0.668-3.6-2.449-6.865-5.344-9.797c-3.896-3.859-8.572-5.789-14.027-5.789c-5.492,0-10.177,1.93-14.055,5.789
				s-5.817,8.535-5.817,14.027c0,5.455,1.939,10.122,5.817,14s8.562,5.817,14.055,5.817c5.455,0,10.131-1.93,14.027-5.789
				C322.996,254.926,324.777,251.66,325.445,248.061L325.445,248.061z M325.445,220.729v-4.008h11.578v57.334h-11.578v-7.181
				c-5.566,5.752-12.023,8.628-19.371,8.628c-8.757,0-16.226-3.089-22.404-9.268s-9.268-13.647-9.268-22.405
				s3.089-16.226,9.268-22.405s13.647-9.268,22.404-9.268C313.422,212.157,319.879,215.015,325.445,220.729L325.445,220.729z
				 M365.301,224.459c4.305-5.826,9.594-8.888,15.865-9.185v11.968c-4.193,0.223-7.533,1.577-10.02,4.063
				c-3.748,3.711-5.697,8.127-5.846,13.248V274h-11.521v-57.278h11.521V224.459z M401.538,216.722v-21.486h11.523v21.486h10.297
				v11.522h-10.297V274h-11.523v-45.756H391.24v-11.522H401.538z M436.774,184.938h11.578V222.9
				c3.229-6.197,7.903-9.296,14.027-9.296c6.123,0,11.012,2.199,14.667,6.596s5.538,9.917,5.649,16.56V274h-11.521v-36.794
				c0-3.303-0.938-6.132-2.812-8.489s-4.833-3.535-8.878-3.535c-4.788,0-8.498,2.561-11.133,7.682V274h-11.578V184.938z"/>
			<path id="Shape" fill="#654321" d="M333.43,530.8l-11.26-3.508l11.194-3.487c3.447-1.127,5.331-4.846,4.209-8.306
				c-1.124-3.46-4.829-5.351-8.276-4.224l-29.27,9.118l-29.27-9.118c-3.447-1.128-7.153,0.763-8.277,4.224
				c-1.123,3.459,0.762,7.179,4.209,8.306l11.193,3.487l-11.26,3.508c-3.447,1.126-5.332,4.846-4.208,8.306
				c1.123,3.459,4.829,5.351,8.276,4.224l29.335-9.14l29.336,9.14c3.447,1.127,7.152-0.765,8.275-4.224
				C338.762,535.646,336.877,531.927,333.43,530.8L333.43,530.8z"/>
			<path id="Shape_1_" fill="#FF8212" d="M289.315,508.555c0-16.181,10.748-31.858,10.748-31.858s10.75,15.678,10.75,31.858
				c31.675,0,29.997-31.806,22.369-48.041c-1.604-3.415-6.202-4.017-8.62-1.125c-6.197,7.417-13.53,11.607-13.53,11.607
				s5.809-17.121-5.722-34.654c-3.357-5.106-8.465-8.567-12.844-10.78c-3.46-1.749-7.557,0.806-7.486,4.693
				c0.3,16.58-11.651,26.434-17.444,35.15C256.788,481.587,262.162,508.555,289.315,508.555L289.315,508.555z"/>
			<g id="Oval">
				<circle id="path-1_1_" fill="none" stroke="#333333" stroke-width="24" cx="300" cy="300" r="290"/>
			</g>
		</g>
	</g>
	<g id="Layer_2">
	</g>
</g>
<g id="Layer_3">
	<g>
		<g>
			<g>
				<path fill="#654321" d="M307.812,155.291L306,123.232c-1.189-0.093-5.792-0.099-6.983-0.139
					c-3.106-0.104-3.548,0.094-6.675,0.059l-2.168,32.487c-0.045,0.683,0.195,1.353,0.666,1.851c0.47,0.498,1.125,0.783,1.813,0.783
					h12.729c1.371,0,2.483-1.106,2.483-2.469C307.865,155.625,307.846,155.456,307.812,155.291z"/>
			</g>
		</g>
	</g>
	<g>
		<g>
			<g>
				<path fill="#138E61" d="M337.285,120.74l-22.334-22.202h14.893c1.006,0,1.91-0.601,2.295-1.523
					c0.385-0.924,0.174-1.984-0.539-2.692l-22.17-22.041h10.484c0.01,0.001,0.021,0.001,0.025,0c1.373,0,2.484-1.106,2.484-2.469
					c0-0.788-0.371-1.489-0.949-1.941l-19.365-19.25c-0.971-0.964-2.542-0.964-3.512,0l-19.561,19.445
					c-0.71,0.706-0.923,1.768-0.539,2.691c0.385,0.922,1.291,1.523,2.295,1.523h10.484l-22.17,22.041
					c-0.71,0.707-0.923,1.768-0.539,2.692c0.385,0.922,1.291,1.523,2.295,1.523h14.892l-22.528,22.398
					c-0.71,0.707-0.923,1.77-0.539,2.693c0.385,0.922,1.29,1.522,2.295,1.522h27.22c4.082-0.594,10.032-0.008,14.164,0.08
					c0.05,0.001,0.094,0.009,0.143,0.011l-0.006-0.09h29.221c0.008,0.001,0.02,0.001,0.025,0c1.371,0,2.484-1.106,2.484-2.47
					C338.232,121.895,337.861,121.192,337.285,120.74z"/>
			</g>
		</g>
	</g>
</g>
</svg>
