<?xml version="1.0" encoding="UTF-8" standalone="no"?>
<svg width="600px" height="600px" viewBox="0 0 600 600" version="1.1" xmlns="http://www.w3.org/2000/svg" xmlns:xlink="http://www.w3.org/1999/xlink">
    <!-- Generator: Sketch 3.7.2 (28276) - http://www.bohemiancoding.com/sketch -->
    <title>logo</title>
    <desc>Created with Sketch.</desc>
    <defs>
        <circle id="path-1" cx="300" cy="300" r="290"></circle>
        <mask id="mask-2" maskContentUnits="userSpaceOnUse" maskUnits="objectBoundingBox" x="0" y="0" width="580" height="580" fill="white">
            <use xlink:href="#path-1"></use>
        </mask>
    </defs>
    <g id="Page-1" stroke="none" stroke-width="1" fill="none" fill-rule="evenodd">
        <g id="logo">
            <path d="M213.389648,313.459961 L213.389648,391 L201.811523,391 L201.811523,313.459961 L181.048828,313.459961 L181.048828,301.9375 L234.152344,301.9375 L234.152344,313.459961 L213.389648,313.459961 Z M257.753906,333.72168 L257.753906,391 L246.231445,391 L246.231445,333.72168 L257.753906,333.72168 Z M257.698242,312.513672 C259.293953,314.072273 260.091797,315.983387 260.091797,318.24707 C260.091797,320.510754 259.293953,322.421867 257.698242,323.980469 C256.102531,325.53907 254.191417,326.318359 251.964844,326.318359 C249.77538,326.318359 247.88282,325.53907 246.287109,323.980469 C244.691398,322.421867 243.893555,320.510754 243.893555,318.24707 C243.893555,315.983387 244.691398,314.072273 246.287109,312.513672 C247.88282,310.95507 249.77538,310.175781 251.964844,310.175781 C254.191417,310.175781 256.102531,310.95507 257.698242,312.513672 L257.698242,312.513672 Z M275.399414,333.72168 L286.921875,333.72168 L286.921875,339.06543 C289.148449,333.461886 293.434539,330.660156 299.780273,330.660156 C306.088899,330.660156 309.632809,333.851531 310.412109,340.234375 C312.230478,333.851531 317.240193,330.660156 325.441406,330.660156 C333.53129,330.660156 337.576172,335.577099 337.576172,345.411133 L337.576172,391 L325.998047,391 L325.998047,350.699219 C325.998047,345.058566 323.715843,342.238281 319.151367,342.238281 C317.25878,342.238281 315.625983,342.906243 314.25293,344.242188 C312.879876,345.578132 312.193359,350.068321 312.193359,357.712891 L312.193359,391 L300.670898,391 L300.726562,350.699219 C300.726562,345.058566 298.425804,342.238281 293.824219,342.238281 C291.931631,342.238281 290.298835,342.906243 288.925781,344.242188 C287.738275,345.392584 287.070313,348.435522 286.921875,353.371094 L286.921875,391 L275.399414,391 L275.399414,333.72168 Z M365.853516,356.321289 L365.853516,365.283203 C366.558597,368.771502 368.339829,371.944322 371.197266,374.801758 C375.093769,378.661152 379.788058,380.59082 385.280273,380.59082 C390.772488,380.59082 395.4575,378.661152 399.335449,374.801758 C403.213398,370.942364 405.152344,366.266629 405.152344,360.774414 C405.152344,355.319309 403.213398,350.643574 399.335449,346.74707 C395.4575,342.850566 390.772488,340.902344 385.280273,340.902344 C379.788058,340.902344 375.093769,342.850566 371.197266,346.74707 C368.339829,349.604506 366.558597,352.795881 365.853516,356.321289 L365.853516,356.321289 Z M365.853516,383.875 L365.853516,391 L354.331055,391 L354.331055,301.9375 L365.853516,301.9375 L365.853516,337.673828 C371.41995,331.921846 377.895471,329.045898 385.280273,329.045898 C394.03813,329.045898 401.506317,332.1445 407.685059,338.341797 C413.8638,344.539093 416.953125,352.016558 416.953125,360.774414 C416.953125,369.53227 413.8638,377.009735 407.685059,383.207031 C401.506317,389.404328 394.03813,392.50293 385.280273,392.50293 C377.895471,392.50293 371.41995,389.626982 365.853516,383.875 L365.853516,383.875 Z M450.073242,378.030273 C452.002939,379.737313 455.50974,380.59082 460.59375,380.59082 C466.085965,380.59082 470.780254,378.661152 474.676758,374.801758 C475.159182,374.282224 476.142571,373.131845 477.626953,371.350586 L489.149414,375.469727 C486.329087,379.36623 484.288092,381.945306 483.026367,383.207031 C476.829071,389.404328 469.351606,392.50293 460.59375,392.50293 C451.873003,392.50293 444.414093,389.404328 438.216797,383.207031 C432.0195,377.009735 428.920898,369.53227 428.920898,360.774414 C428.920898,352.016558 432.0195,344.539093 438.216797,338.341797 C444.414093,332.1445 451.873003,329.045898 460.59375,329.045898 C468.089881,329.045898 474.658175,331.309548 480.298828,335.836914 C481.226567,336.616215 482.135738,337.451167 483.026367,338.341797 C483.397463,338.712892 484.455069,339.881826 486.199219,341.848633 L480.410156,347.693359 L450.073242,378.030273 Z M469.333008,342.405273 C468.034173,341.403315 465.121116,340.902344 460.59375,340.902344 C455.138645,340.902344 450.472187,342.841289 446.594238,346.719238 C442.716289,350.597187 440.777344,355.282199 440.777344,360.774414 C440.777344,365.264671 441.278315,368.177728 442.280273,369.513672 L469.333008,342.405273 Z M514.03125,341.458984 C518.335959,335.632783 523.623992,332.571291 529.895508,332.274414 L529.895508,344.242188 C525.702127,344.464845 522.362317,345.819324 519.875977,348.305664 C516.127911,352.01662 514.179688,356.432592 514.03125,361.553711 L514.03125,391 L502.508789,391 L502.508789,333.72168 L514.03125,333.72168 L514.03125,341.458984 Z" id="Timber" fill="#2D2D2D"></path>
            <path d="M146.728516,356.432617 C147.099611,357.768561 147.285156,359.067377 147.285156,360.329102 C147.285156,362.815442 146.635749,365.171864 145.336914,367.398438 C143.332998,370.923846 140.067405,373.354486 135.540039,374.69043 C134.723629,377.399428 132.645525,380.423811 129.305664,383.763672 C123.887668,389.218777 117.337929,391.946289 109.65625,391.946289 C102.011681,391.946289 95.4712186,389.228055 90.034668,383.791504 C84.5981173,378.354953 81.8798828,371.795937 81.8798828,364.114258 C81.8798828,356.506798 84.5331766,349.864286 89.8398438,344.186523 C93.031266,341.06932 95.9628773,339.343752 98.6347656,339.009766 C92.8827837,333.220674 90.0068359,327.450224 90.0068359,321.698242 C90.0068359,316.020479 92.0385539,311.140645 96.1020508,307.058594 C100.165548,302.976542 105.073213,300.935547 110.825195,300.935547 C116.577177,300.935547 121.49412,302.957988 125.576172,307.00293 C127.876965,309.229503 129.806633,312.773413 131.365234,317.634766 L120.900391,321.753906 C119.638666,318.339827 118.488286,316.113286 117.449219,315.074219 C115.63085,313.29296 113.422865,312.402344 110.825195,312.402344 C108.264636,312.402344 106.075204,313.302237 104.256836,315.102051 C102.438467,316.901864 101.529297,319.100573 101.529297,321.698242 C101.529297,324.333021 102.484854,326.670888 104.395996,328.711914 C106.307138,330.75294 108.069816,332.088864 109.684082,332.719727 C111.298348,333.350589 114.591772,333.68457 119.564453,333.72168 L119.564453,344.798828 L112.773438,344.854492 C106.205045,346.153327 101.315934,348.556135 98.105957,352.062988 C94.89598,355.569842 93.2910156,359.586891 93.2910156,364.114258 C93.2910156,368.641624 94.8867028,372.500961 98.078125,375.692383 C101.269547,378.883805 105.128884,380.479492 109.65625,380.479492 C114.146507,380.479492 118.970677,377.844753 124.128906,372.575195 C123.089839,371.721675 121.252943,369.921889 118.618164,367.175781 C117.653315,366.285152 116.892581,365.654299 116.335938,365.283203 C115.816404,364.949217 115.38965,364.782227 115.055664,364.782227 L115,364.782227 C114.628904,364.819336 114.369141,365.023436 114.220703,365.394531 C114.146484,365.542969 114.109375,365.691406 114.109375,365.839844 C114.109375,366.099611 114.183593,366.377928 114.332031,366.674805 L104.869141,373.076172 C104.08984,371.925775 103.496096,370.62696 103.087891,369.179688 C102.791014,368.029291 102.642578,366.897467 102.642578,365.78418 C102.642578,363.668935 103.199213,361.62794 104.3125,359.661133 C106.056649,356.655258 108.580062,354.707036 111.882812,353.816406 C113.033209,353.48242 114.183588,353.31543 115.333984,353.31543 C117.449229,353.31543 119.47167,353.872065 121.401367,354.985352 C123.034188,355.913091 124.898915,357.647937 126.995605,360.189941 C129.092296,362.731946 131.049796,364.114257 132.868164,364.336914 C133.127931,364.374024 133.36914,364.392578 133.591797,364.392578 C135.00196,364.392578 136.003903,363.743171 136.597656,362.444336 C136.746094,362.11035 136.820312,361.757814 136.820312,361.386719 C136.820312,360.199213 135.966805,358.900398 134.259766,357.490234 L139.9375,347.637695 C143.388689,349.641612 145.652338,352.573223 146.728516,356.432617 L146.728516,356.432617 Z" id="&amp;" fill="#2D2D2D"></path>
            <path d="M149.825684,237.150391 L149.825684,274 L138.303223,274 L138.303223,184.9375 L149.825684,184.9375 L149.825684,225.62793 L177.32373,225.62793 L177.32373,184.9375 L188.846191,184.9375 L188.846191,274 L177.32373,274 L177.32373,237.150391 L149.825684,237.150391 Z M223.35791,261.030273 C225.287607,262.737313 228.794408,263.59082 233.878418,263.59082 C239.370633,263.59082 244.064922,261.661152 247.961426,257.801758 C248.44385,257.282224 249.427239,256.131845 250.911621,254.350586 L262.434082,258.469727 C259.613755,262.36623 257.57276,264.945306 256.311035,266.207031 C250.113739,272.404328 242.636274,275.50293 233.878418,275.50293 C225.157671,275.50293 217.698761,272.404328 211.501465,266.207031 C205.304168,260.009735 202.205566,252.53227 202.205566,243.774414 C202.205566,235.016558 205.304168,227.539093 211.501465,221.341797 C217.698761,215.1445 225.157671,212.045898 233.878418,212.045898 C241.374549,212.045898 247.942843,214.309548 253.583496,218.836914 C254.511235,219.616215 255.420406,220.451167 256.311035,221.341797 C256.682131,221.712892 257.739737,222.881826 259.483887,224.848633 L253.694824,230.693359 L223.35791,261.030273 Z M242.617676,225.405273 C241.318841,224.403315 238.405784,223.902344 233.878418,223.902344 C228.423313,223.902344 223.756855,225.841289 219.878906,229.719238 C216.000957,233.597187 214.062012,238.282199 214.062012,243.774414 C214.062012,248.264671 214.562983,251.177728 215.564941,252.513672 L242.617676,225.405273 Z M325.445801,248.060547 L325.445801,239.599609 C324.777829,235.999982 322.996597,232.73439 320.102051,229.802734 C316.205547,225.94334 311.529812,224.013672 306.074707,224.013672 C300.582492,224.013672 295.89748,225.94334 292.019531,229.802734 C288.141582,233.662129 286.202637,238.337863 286.202637,243.830078 C286.202637,249.285184 288.141582,253.951641 292.019531,257.82959 C295.89748,261.707539 300.582492,263.646484 306.074707,263.646484 C311.529812,263.646484 316.205547,261.716816 320.102051,257.857422 C322.996597,254.925767 324.777829,251.660174 325.445801,248.060547 L325.445801,248.060547 Z M325.445801,220.729492 L325.445801,216.72168 L337.023926,216.72168 L337.023926,274.055664 L325.445801,274.055664 L325.445801,266.875 C319.879367,272.626982 313.4224,275.50293 306.074707,275.50293 C297.316851,275.50293 289.848664,272.413605 283.669922,266.234863 C277.49118,260.056121 274.401855,252.587934 274.401855,243.830078 C274.401855,235.072222 277.49118,227.604035 283.669922,221.425293 C289.848664,215.246551 297.316851,212.157227 306.074707,212.157227 C313.4224,212.157227 319.879367,215.01462 325.445801,220.729492 L325.445801,220.729492 Z M365.30127,224.458984 C369.605979,218.632783 374.894012,215.571291 381.165527,215.274414 L381.165527,227.242188 C376.972147,227.464845 373.632337,228.819324 371.145996,231.305664 C367.39793,235.01662 365.449708,239.432592 365.30127,244.553711 L365.30127,274 L353.778809,274 L353.778809,216.72168 L365.30127,216.72168 L365.30127,224.458984 Z M401.538574,216.72168 L401.538574,195.235352 L413.061035,195.235352 L413.061035,216.72168 L423.358887,216.72168 L423.358887,228.244141 L413.061035,228.244141 L413.061035,274 L401.538574,274 L401.538574,228.244141 L391.240723,228.244141 L391.240723,216.72168 L401.538574,216.72168 Z M436.773926,184.9375 L448.352051,184.9375 L448.352051,222.900391 C451.580583,216.703094 456.256317,213.604492 462.379395,213.604492 C468.502472,213.604492 473.391583,215.803201 477.046875,220.200684 C480.702167,224.598167 482.585449,230.118131 482.696777,236.760742 L482.696777,274 L471.174316,274 L471.174316,237.206055 C471.174316,233.903304 470.237314,231.073742 468.363281,228.717285 C466.489248,226.360828 463.529805,225.182617 459.484863,225.182617 C454.69773,225.182617 450.98683,227.743138 448.352051,232.864258 L448.352051,274 L436.773926,274 L436.773926,184.9375 Z" id="Hearth" fill="#2D2D2D"></path>
            <path d="M333.430052,530.799785 L322.170513,527.292081 L333.364,523.805141 C336.811455,522.677836 338.695937,518.958487 337.573047,515.499101 C336.449361,512.038916 332.743665,510.148094 329.296209,511.275399 L300.02666,520.393674 L270.757508,511.275 C267.310052,510.147695 263.604356,512.038517 262.48067,515.498701 C261.35778,518.958087 263.242262,522.677436 266.689717,523.804742 L277.883204,527.291681 L266.623665,530.799386 C263.176209,531.926292 261.291728,535.645641 262.415414,539.105027 C263.538304,542.564812 267.244,544.456034 270.691455,543.328728 L300.027058,534.189688 L329.36266,543.328728 C332.810115,544.456034 336.515812,542.564812 337.638702,539.105027 C338.762387,535.645641 336.877508,531.926691 333.430052,530.799785 L333.430052,530.799785 Z" id="Shape" fill="#000000"></path>
            <path d="M289.315435,508.554372 C289.315435,492.373567 300.063267,476.695916 300.063267,476.695916 C300.063267,476.695916 310.813487,492.373567 310.813487,508.554372 C342.488775,508.554372 340.811204,476.748628 333.182555,460.513913 C331.577801,457.098453 326.980796,456.496664 324.56312,459.389003 C318.364545,466.805339 311.032335,470.995896 311.032335,470.995896 C311.032335,470.995896 316.840963,453.87547 305.31045,436.342138 C301.952524,431.235121 296.845801,427.774138 292.466848,425.561057 C289.00666,423.812396 284.91022,426.366903 284.981047,430.254768 C285.281466,446.835302 273.329571,456.688742 267.537257,465.405292 C256.78823,481.586497 262.161948,508.554372 289.315435,508.554372 L289.315435,508.554372 Z" id="Shape" fill="#333333"></path>
            <path d="M336.934661,120.842 L314.602177,98.6397347 L329.492984,98.6397347 C330.498952,98.6397347 331.403081,98.0384388 331.789323,97.1161224 C332.174323,96.1925714 331.961952,95.1319694 331.249081,94.4244898 L309.080532,72.3839694 L319.564952,72.3839694 C319.574887,72.3852041 319.584823,72.3852041 319.58979,72.3839694 C320.962129,72.3839694 322.073661,71.2776837 322.073661,69.9145816 C322.073661,69.1268469 321.702323,68.4255408 321.124823,67.9736429 L301.759323,48.7235306 C300.789371,47.7592347 299.217081,47.7592347 298.247129,48.7235306 L278.686645,68.1687245 C277.976258,68.8749694 277.763887,69.9368061 278.147645,70.8603571 C278.532645,71.7826735 279.438016,72.3839694 280.442742,72.3839694 L290.927161,72.3839694 L268.757371,94.4244898 C268.046984,95.1307347 267.834613,96.1925714 268.218371,97.1161224 C268.603371,98.0384388 269.508742,98.6397347 270.513468,98.6397347 L285.405516,98.6397347 L262.876806,121.038316 C262.166419,121.744561 261.954048,122.807633 262.337806,123.731184 C262.722806,124.6535 263.628177,125.253561 264.632903,125.253561 L293.853161,125.253561 L291.174306,165.407041 C291.129597,166.089827 291.36929,166.760265 291.839984,167.257847 C292.309435,167.755429 292.965177,168.040643 293.65321,168.040643 L306.355726,168.040643 L306.381806,168.040643 C307.752903,168.040643 308.865677,166.934357 308.865677,165.571255 C308.865677,165.393459 308.845806,165.224306 308.812274,165.058857 L306.154532,125.254796 L335.37479,125.254796 C335.383484,125.256031 335.393419,125.256031 335.400871,125.254796 C336.771968,125.254796 337.884742,124.14851 337.884742,122.785408 C337.8835,121.996439 337.512161,121.293898 336.934661,120.842 L336.934661,120.842 Z" id="Shape" fill="#333333"></path>
            <use id="Oval" stroke="#333333" mask="url(#mask-2)" stroke-width="24" xlink:href="#path-1"></use>
        </g>
    </g>
</svg>